<?xml version="1.0" encoding="utf-8" standalone="no"?>
<!DOCTYPE svg PUBLIC "-//W3C//DTD SVG 1.1//EN"
  "http://www.w3.org/Graphics/SVG/1.1/DTD/svg11.dtd">
<svg xmlns:xlink="http://www.w3.org/1999/xlink" width="604.8pt" height="374.4pt" viewBox="0 0 604.8 374.4" xmlns="http://www.w3.org/2000/svg" version="1.1">
 <metadata>
  <rdf:RDF xmlns:dc="http://purl.org/dc/elements/1.1/" xmlns:cc="http://creativecommons.org/ns#" xmlns:rdf="http://www.w3.org/1999/02/22-rdf-syntax-ns#">
   <cc:Work>
    <dc:type rdf:resource="http://purl.org/dc/dcmitype/StillImage"/>
    <dc:date>2026-10-02T22:14:49.416959</dc:date>
    <dc:format>image/svg+xml</dc:format>
    <dc:creator>
     <cc:Agent>
      <dc:title>Matplotlib v3.10.8, https://matplotlib.org/</dc:title>
     </cc:Agent>
    </dc:creator>
   </cc:Work>
  </rdf:RDF>
 </metadata>
 <defs>
  <style type="text/css">*{stroke-linejoin: round; stroke-linecap: butt}</style>
 </defs>
 <g id="figure_1">
  <g id="patch_1">
   <path d="M 0 374.4 
L 604.8 374.4 
L 604.8 0 
L 0 0 
z
" style="fill: #ffffff"/>
  </g>
  <g id="axes_1">
   <g id="patch_2">
    <path d="M 54.323678 341.04351 
L 601.79976 341.04351 
L 601.79976 18.118365 
L 54.323678 18.118365 
z
" style="fill: #ffffff"/>
   </g>
   <g id="matplotlib.axis_1">
    <g id="xtick_1">
     <g id="line2d_1">
      <path d="M 74.130326 341.04351 
L 74.130326 18.118365 
" clip-path="url(#p16579dcfa7)" style="fill: none; stroke: #b0b0b0; stroke-opacity: 0.25; stroke-width: 0.8; stroke-linecap: square"/>
     </g>
     <g id="line2d_2">
      <defs>
       <path id="md9e2582d8d" d="M 0 0 
L 0 3.5 
" style="stroke: #000000; stroke-width: 0.8"/>
      </defs>
      <g>
       <use xlink:href="#md9e2582d8d" x="74.130326" y="341.04351" style="stroke: #000000; stroke-width: 0.8"/>
      </g>
     </g>
     <g id="text_1">
      <!-- 0 -->
      <g transform="translate(70.949076 355.641948) scale(0.1 -0.1)">
       <defs>
        <path id="DejaVuSans-30" d="M 2034 4250 
Q 1547 4250 1301 3770 
Q 1056 3291 1056 2328 
Q 1056 1369 1301 889 
Q 1547 409 2034 409 
Q 2525 409 2770 889 
Q 3016 1369 3016 2328 
Q 3016 3291 2770 3770 
Q 2525 4250 2034 4250 
z
M 2034 4750 
Q 2819 4750 3233 4129 
Q 3647 3509 3647 2328 
Q 3647 1150 3233 529 
Q 2819 -91 2034 -91 
Q 1250 -91 836 529 
Q 422 1150 422 2328 
Q 422 3509 836 4129 
Q 1250 4750 2034 4750 
z
" transform="scale(0.015625)"/>
       </defs>
       <use xlink:href="#DejaVuSans-30"/>
      </g>
     </g>
    </g>
    <g id="xtick_2">
     <g id="line2d_3">
      <path d="M 175.702883 341.04351 
L 175.702883 18.118365 
" clip-path="url(#p16579dcfa7)" style="fill: none; stroke: #b0b0b0; stroke-opacity: 0.25; stroke-width: 0.8; stroke-linecap: square"/>
     </g>
     <g id="line2d_4">
      <g>
       <use xlink:href="#md9e2582d8d" x="175.702883" y="341.04351" style="stroke: #000000; stroke-width: 0.8"/>
      </g>
     </g>
     <g id="text_2">
      <!-- 10 -->
      <g transform="translate(169.340383 355.641948) scale(0.1 -0.1)">
       <defs>
        <path id="DejaVuSans-31" d="M 794 531 
L 1825 531 
L 1825 4091 
L 703 3866 
L 703 4441 
L 1819 4666 
L 2450 4666 
L 2450 531 
L 3481 531 
L 3481 0 
L 794 0 
L 794 531 
z
" transform="scale(0.015625)"/>
       </defs>
       <use xlink:href="#DejaVuSans-31"/>
       <use xlink:href="#DejaVuSans-30" transform="translate(63.623047 0)"/>
      </g>
     </g>
    </g>
    <g id="xtick_3">
     <g id="line2d_5">
      <path d="M 277.27544 341.04351 
L 277.27544 18.118365 
" clip-path="url(#p16579dcfa7)" style="fill: none; stroke: #b0b0b0; stroke-opacity: 0.25; stroke-width: 0.8; stroke-linecap: square"/>
     </g>
     <g id="line2d_6">
      <g>
       <use xlink:href="#md9e2582d8d" x="277.27544" y="341.04351" style="stroke: #000000; stroke-width: 0.8"/>
      </g>
     </g>
     <g id="text_3">
      <!-- 20 -->
      <g transform="translate(270.91294 355.641948) scale(0.1 -0.1)">
       <defs>
        <path id="DejaVuSans-32" d="M 1228 531 
L 3431 531 
L 3431 0 
L 469 0 
L 469 531 
Q 828 903 1448 1529 
Q 2069 2156 2228 2338 
Q 2531 2678 2651 2914 
Q 2772 3150 2772 3378 
Q 2772 3750 2511 3984 
Q 2250 4219 1831 4219 
Q 1534 4219 1204 4116 
Q 875 4013 500 3803 
L 500 4441 
Q 881 4594 1212 4672 
Q 1544 4750 1819 4750 
Q 2544 4750 2975 4387 
Q 3406 4025 3406 3419 
Q 3406 3131 3298 2873 
Q 3191 2616 2906 2266 
Q 2828 2175 2409 1742 
Q 1991 1309 1228 531 
z
" transform="scale(0.015625)"/>
       </defs>
       <use xlink:href="#DejaVuSans-32"/>
       <use xlink:href="#DejaVuSans-30" transform="translate(63.623047 0)"/>
      </g>
     </g>
    </g>
    <g id="xtick_4">
     <g id="line2d_7">
      <path d="M 378.847997 341.04351 
L 378.847997 18.118365 
" clip-path="url(#p16579dcfa7)" style="fill: none; stroke: #b0b0b0; stroke-opacity: 0.25; stroke-width: 0.8; stroke-linecap: square"/>
     </g>
     <g id="line2d_8">
      <g>
       <use xlink:href="#md9e2582d8d" x="378.847997" y="341.04351" style="stroke: #000000; stroke-width: 0.8"/>
      </g>
     </g>
     <g id="text_4">
      <!-- 30 -->
      <g transform="translate(372.485497 355.641948) scale(0.1 -0.1)">
       <defs>
        <path id="DejaVuSans-33" d="M 2597 2516 
Q 3050 2419 3304 2112 
Q 3559 1806 3559 1356 
Q 3559 666 3084 287 
Q 2609 -91 1734 -91 
Q 1441 -91 1130 -33 
Q 819 25 488 141 
L 488 750 
Q 750 597 1062 519 
Q 1375 441 1716 441 
Q 2309 441 2620 675 
Q 2931 909 2931 1356 
Q 2931 1769 2642 2001 
Q 2353 2234 1838 2234 
L 1294 2234 
L 1294 2753 
L 1863 2753 
Q 2328 2753 2575 2939 
Q 2822 3125 2822 3475 
Q 2822 3834 2567 4026 
Q 2313 4219 1838 4219 
Q 1578 4219 1281 4162 
Q 984 4106 628 3988 
L 628 4550 
Q 988 4650 1302 4700 
Q 1616 4750 1894 4750 
Q 2613 4750 3031 4423 
Q 3450 4097 3450 3541 
Q 3450 3153 3228 2886 
Q 3006 2619 2597 2516 
z
" transform="scale(0.015625)"/>
       </defs>
       <use xlink:href="#DejaVuSans-33"/>
       <use xlink:href="#DejaVuSans-30" transform="translate(63.623047 0)"/>
      </g>
     </g>
    </g>
    <g id="xtick_5">
     <g id="line2d_9">
      <path d="M 480.420554 341.04351 
L 480.420554 18.118365 
" clip-path="url(#p16579dcfa7)" style="fill: none; stroke: #b0b0b0; stroke-opacity: 0.25; stroke-width: 0.8; stroke-linecap: square"/>
     </g>
     <g id="line2d_10">
      <g>
       <use xlink:href="#md9e2582d8d" x="480.420554" y="341.04351" style="stroke: #000000; stroke-width: 0.8"/>
      </g>
     </g>
     <g id="text_5">
      <!-- 40 -->
      <g transform="translate(474.058054 355.641948) scale(0.1 -0.1)">
       <defs>
        <path id="DejaVuSans-34" d="M 2419 4116 
L 825 1625 
L 2419 1625 
L 2419 4116 
z
M 2253 4666 
L 3047 4666 
L 3047 1625 
L 3713 1625 
L 3713 1100 
L 3047 1100 
L 3047 0 
L 2419 0 
L 2419 1100 
L 313 1100 
L 313 1709 
L 2253 4666 
z
" transform="scale(0.015625)"/>
       </defs>
       <use xlink:href="#DejaVuSans-34"/>
       <use xlink:href="#DejaVuSans-30" transform="translate(63.623047 0)"/>
      </g>
     </g>
    </g>
    <g id="xtick_6">
     <g id="line2d_11">
      <path d="M 581.993111 341.04351 
L 581.993111 18.118365 
" clip-path="url(#p16579dcfa7)" style="fill: none; stroke: #b0b0b0; stroke-opacity: 0.25; stroke-width: 0.8; stroke-linecap: square"/>
     </g>
     <g id="line2d_12">
      <g>
       <use xlink:href="#md9e2582d8d" x="581.993111" y="341.04351" style="stroke: #000000; stroke-width: 0.8"/>
      </g>
     </g>
     <g id="text_6">
      <!-- 50 -->
      <g transform="translate(575.630611 355.641948) scale(0.1 -0.1)">
       <defs>
        <path id="DejaVuSans-35" d="M 691 4666 
L 3169 4666 
L 3169 4134 
L 1269 4134 
L 1269 2991 
Q 1406 3038 1543 3061 
Q 1681 3084 1819 3084 
Q 2600 3084 3056 2656 
Q 3513 2228 3513 1497 
Q 3513 744 3044 326 
Q 2575 -91 1722 -91 
Q 1428 -91 1123 -41 
Q 819 9 494 109 
L 494 744 
Q 775 591 1075 516 
Q 1375 441 1709 441 
Q 2250 441 2565 725 
Q 2881 1009 2881 1497 
Q 2881 1984 2565 2268 
Q 2250 2553 1709 2553 
Q 1456 2553 1204 2497 
Q 953 2441 691 2322 
L 691 4666 
z
" transform="scale(0.015625)"/>
       </defs>
       <use xlink:href="#DejaVuSans-35"/>
       <use xlink:href="#DejaVuSans-30" transform="translate(63.623047 0)"/>
      </g>
     </g>
    </g>
    <g id="text_7">
     <!-- Distance from drain boundary (m) -->
     <g transform="translate(242.7625 369.320073) scale(0.1 -0.1)">
      <defs>
       <path id="DejaVuSans-44" d="M 1259 4147 
L 1259 519 
L 2022 519 
Q 2988 519 3436 956 
Q 3884 1394 3884 2338 
Q 3884 3275 3436 3711 
Q 2988 4147 2022 4147 
L 1259 4147 
z
M 628 4666 
L 1925 4666 
Q 3281 4666 3915 4102 
Q 4550 3538 4550 2338 
Q 4550 1131 3912 565 
Q 3275 0 1925 0 
L 628 0 
L 628 4666 
z
" transform="scale(0.015625)"/>
       <path id="DejaVuSans-69" d="M 603 3500 
L 1178 3500 
L 1178 0 
L 603 0 
L 603 3500 
z
M 603 4863 
L 1178 4863 
L 1178 4134 
L 603 4134 
L 603 4863 
z
" transform="scale(0.015625)"/>
       <path id="DejaVuSans-73" d="M 2834 3397 
L 2834 2853 
Q 2591 2978 2328 3040 
Q 2066 3103 1784 3103 
Q 1356 3103 1142 2972 
Q 928 2841 928 2578 
Q 928 2378 1081 2264 
Q 1234 2150 1697 2047 
L 1894 2003 
Q 2506 1872 2764 1633 
Q 3022 1394 3022 966 
Q 3022 478 2636 193 
Q 2250 -91 1575 -91 
Q 1294 -91 989 -36 
Q 684 19 347 128 
L 347 722 
Q 666 556 975 473 
Q 1284 391 1588 391 
Q 1994 391 2212 530 
Q 2431 669 2431 922 
Q 2431 1156 2273 1281 
Q 2116 1406 1581 1522 
L 1381 1569 
Q 847 1681 609 1914 
Q 372 2147 372 2553 
Q 372 3047 722 3315 
Q 1072 3584 1716 3584 
Q 2034 3584 2315 3537 
Q 2597 3491 2834 3397 
z
" transform="scale(0.015625)"/>
       <path id="DejaVuSans-74" d="M 1172 4494 
L 1172 3500 
L 2356 3500 
L 2356 3053 
L 1172 3053 
L 1172 1153 
Q 1172 725 1289 603 
Q 1406 481 1766 481 
L 2356 481 
L 2356 0 
L 1766 0 
Q 1100 0 847 248 
Q 594 497 594 1153 
L 594 3053 
L 172 3053 
L 172 3500 
L 594 3500 
L 594 4494 
L 1172 4494 
z
" transform="scale(0.015625)"/>
       <path id="DejaVuSans-61" d="M 2194 1759 
Q 1497 1759 1228 1600 
Q 959 1441 959 1056 
Q 959 750 1161 570 
Q 1363 391 1709 391 
Q 2188 391 2477 730 
Q 2766 1069 2766 1631 
L 2766 1759 
L 2194 1759 
z
M 3341 1997 
L 3341 0 
L 2766 0 
L 2766 531 
Q 2569 213 2275 61 
Q 1981 -91 1556 -91 
Q 1019 -91 701 211 
Q 384 513 384 1019 
Q 384 1609 779 1909 
Q 1175 2209 1959 2209 
L 2766 2209 
L 2766 2266 
Q 2766 2663 2505 2880 
Q 2244 3097 1772 3097 
Q 1472 3097 1187 3025 
Q 903 2953 641 2809 
L 641 3341 
Q 956 3463 1253 3523 
Q 1550 3584 1831 3584 
Q 2591 3584 2966 3190 
Q 3341 2797 3341 1997 
z
" transform="scale(0.015625)"/>
       <path id="DejaVuSans-6e" d="M 3513 2113 
L 3513 0 
L 2938 0 
L 2938 2094 
Q 2938 2591 2744 2837 
Q 2550 3084 2163 3084 
Q 1697 3084 1428 2787 
Q 1159 2491 1159 1978 
L 1159 0 
L 581 0 
L 581 3500 
L 1159 3500 
L 1159 2956 
Q 1366 3272 1645 3428 
Q 1925 3584 2291 3584 
Q 2894 3584 3203 3211 
Q 3513 2838 3513 2113 
z
" transform="scale(0.015625)"/>
       <path id="DejaVuSans-63" d="M 3122 3366 
L 3122 2828 
Q 2878 2963 2633 3030 
Q 2388 3097 2138 3097 
Q 1578 3097 1268 2742 
Q 959 2388 959 1747 
Q 959 1106 1268 751 
Q 1578 397 2138 397 
Q 2388 397 2633 464 
Q 2878 531 3122 666 
L 3122 134 
Q 2881 22 2623 -34 
Q 2366 -91 2075 -91 
Q 1284 -91 818 406 
Q 353 903 353 1747 
Q 353 2603 823 3093 
Q 1294 3584 2113 3584 
Q 2378 3584 2631 3529 
Q 2884 3475 3122 3366 
z
" transform="scale(0.015625)"/>
       <path id="DejaVuSans-65" d="M 3597 1894 
L 3597 1613 
L 953 1613 
Q 991 1019 1311 708 
Q 1631 397 2203 397 
Q 2534 397 2845 478 
Q 3156 559 3463 722 
L 3463 178 
Q 3153 47 2828 -22 
Q 2503 -91 2169 -91 
Q 1331 -91 842 396 
Q 353 884 353 1716 
Q 353 2575 817 3079 
Q 1281 3584 2069 3584 
Q 2775 3584 3186 3129 
Q 3597 2675 3597 1894 
z
M 3022 2063 
Q 3016 2534 2758 2815 
Q 2500 3097 2075 3097 
Q 1594 3097 1305 2825 
Q 1016 2553 972 2059 
L 3022 2063 
z
" transform="scale(0.015625)"/>
       <path id="DejaVuSans-20" transform="scale(0.015625)"/>
       <path id="DejaVuSans-66" d="M 2375 4863 
L 2375 4384 
L 1825 4384 
Q 1516 4384 1395 4259 
Q 1275 4134 1275 3809 
L 1275 3500 
L 2222 3500 
L 2222 3053 
L 1275 3053 
L 1275 0 
L 697 0 
L 697 3053 
L 147 3053 
L 147 3500 
L 697 3500 
L 697 3744 
Q 697 4328 969 4595 
Q 1241 4863 1831 4863 
L 2375 4863 
z
" transform="scale(0.015625)"/>
       <path id="DejaVuSans-72" d="M 2631 2963 
Q 2534 3019 2420 3045 
Q 2306 3072 2169 3072 
Q 1681 3072 1420 2755 
Q 1159 2438 1159 1844 
L 1159 0 
L 581 0 
L 581 3500 
L 1159 3500 
L 1159 2956 
Q 1341 3275 1631 3429 
Q 1922 3584 2338 3584 
Q 2397 3584 2469 3576 
Q 2541 3569 2628 3553 
L 2631 2963 
z
" transform="scale(0.015625)"/>
       <path id="DejaVuSans-6f" d="M 1959 3097 
Q 1497 3097 1228 2736 
Q 959 2375 959 1747 
Q 959 1119 1226 758 
Q 1494 397 1959 397 
Q 2419 397 2687 759 
Q 2956 1122 2956 1747 
Q 2956 2369 2687 2733 
Q 2419 3097 1959 3097 
z
M 1959 3584 
Q 2709 3584 3137 3096 
Q 3566 2609 3566 1747 
Q 3566 888 3137 398 
Q 2709 -91 1959 -91 
Q 1206 -91 779 398 
Q 353 888 353 1747 
Q 353 2609 779 3096 
Q 1206 3584 1959 3584 
z
" transform="scale(0.015625)"/>
       <path id="DejaVuSans-6d" d="M 3328 2828 
Q 3544 3216 3844 3400 
Q 4144 3584 4550 3584 
Q 5097 3584 5394 3201 
Q 5691 2819 5691 2113 
L 5691 0 
L 5113 0 
L 5113 2094 
Q 5113 2597 4934 2840 
Q 4756 3084 4391 3084 
Q 3944 3084 3684 2787 
Q 3425 2491 3425 1978 
L 3425 0 
L 2847 0 
L 2847 2094 
Q 2847 2600 2669 2842 
Q 2491 3084 2119 3084 
Q 1678 3084 1418 2786 
Q 1159 2488 1159 1978 
L 1159 0 
L 581 0 
L 581 3500 
L 1159 3500 
L 1159 2956 
Q 1356 3278 1631 3431 
Q 1906 3584 2284 3584 
Q 2666 3584 2933 3390 
Q 3200 3197 3328 2828 
z
" transform="scale(0.015625)"/>
       <path id="DejaVuSans-64" d="M 2906 2969 
L 2906 4863 
L 3481 4863 
L 3481 0 
L 2906 0 
L 2906 525 
Q 2725 213 2448 61 
Q 2172 -91 1784 -91 
Q 1150 -91 751 415 
Q 353 922 353 1747 
Q 353 2572 751 3078 
Q 1150 3584 1784 3584 
Q 2172 3584 2448 3432 
Q 2725 3281 2906 2969 
z
M 947 1747 
Q 947 1113 1208 752 
Q 1469 391 1925 391 
Q 2381 391 2643 752 
Q 2906 1113 2906 1747 
Q 2906 2381 2643 2742 
Q 2381 3103 1925 3103 
Q 1469 3103 1208 2742 
Q 947 2381 947 1747 
z
" transform="scale(0.015625)"/>
       <path id="DejaVuSans-62" d="M 3116 1747 
Q 3116 2381 2855 2742 
Q 2594 3103 2138 3103 
Q 1681 3103 1420 2742 
Q 1159 2381 1159 1747 
Q 1159 1113 1420 752 
Q 1681 391 2138 391 
Q 2594 391 2855 752 
Q 3116 1113 3116 1747 
z
M 1159 2969 
Q 1341 3281 1617 3432 
Q 1894 3584 2278 3584 
Q 2916 3584 3314 3078 
Q 3713 2572 3713 1747 
Q 3713 922 3314 415 
Q 2916 -91 2278 -91 
Q 1894 -91 1617 61 
Q 1341 213 1159 525 
L 1159 0 
L 581 0 
L 581 4863 
L 1159 4863 
L 1159 2969 
z
" transform="scale(0.015625)"/>
       <path id="DejaVuSans-75" d="M 544 1381 
L 544 3500 
L 1119 3500 
L 1119 1403 
Q 1119 906 1312 657 
Q 1506 409 1894 409 
Q 2359 409 2629 706 
Q 2900 1003 2900 1516 
L 2900 3500 
L 3475 3500 
L 3475 0 
L 2900 0 
L 2900 538 
Q 2691 219 2414 64 
Q 2138 -91 1772 -91 
Q 1169 -91 856 284 
Q 544 659 544 1381 
z
M 1991 3584 
L 1991 3584 
z
" transform="scale(0.015625)"/>
       <path id="DejaVuSans-79" d="M 2059 -325 
Q 1816 -950 1584 -1140 
Q 1353 -1331 966 -1331 
L 506 -1331 
L 506 -850 
L 844 -850 
Q 1081 -850 1212 -737 
Q 1344 -625 1503 -206 
L 1606 56 
L 191 3500 
L 800 3500 
L 1894 763 
L 2988 3500 
L 3597 3500 
L 2059 -325 
z
" transform="scale(0.015625)"/>
       <path id="DejaVuSans-28" d="M 1984 4856 
Q 1566 4138 1362 3434 
Q 1159 2731 1159 2009 
Q 1159 1288 1364 580 
Q 1569 -128 1984 -844 
L 1484 -844 
Q 1016 -109 783 600 
Q 550 1309 550 2009 
Q 550 2706 781 3412 
Q 1013 4119 1484 4856 
L 1984 4856 
z
" transform="scale(0.015625)"/>
       <path id="DejaVuSans-29" d="M 513 4856 
L 1013 4856 
Q 1481 4119 1714 3412 
Q 1947 2706 1947 2009 
Q 1947 1309 1714 600 
Q 1481 -109 1013 -844 
L 513 -844 
Q 928 -128 1133 580 
Q 1338 1288 1338 2009 
Q 1338 2731 1133 3434 
Q 928 4138 513 4856 
z
" transform="scale(0.015625)"/>
      </defs>
      <use xlink:href="#DejaVuSans-44"/>
      <use xlink:href="#DejaVuSans-69" transform="translate(77.001953 0)"/>
      <use xlink:href="#DejaVuSans-73" transform="translate(104.785156 0)"/>
      <use xlink:href="#DejaVuSans-74" transform="translate(156.884766 0)"/>
      <use xlink:href="#DejaVuSans-61" transform="translate(196.09375 0)"/>
      <use xlink:href="#DejaVuSans-6e" transform="translate(257.373047 0)"/>
      <use xlink:href="#DejaVuSans-63" transform="translate(320.751953 0)"/>
      <use xlink:href="#DejaVuSans-65" transform="translate(375.732422 0)"/>
      <use xlink:href="#DejaVuSans-20" transform="translate(437.255859 0)"/>
      <use xlink:href="#DejaVuSans-66" transform="translate(469.042969 0)"/>
      <use xlink:href="#DejaVuSans-72" transform="translate(504.248047 0)"/>
      <use xlink:href="#DejaVuSans-6f" transform="translate(543.111328 0)"/>
      <use xlink:href="#DejaVuSans-6d" transform="translate(604.292969 0)"/>
      <use xlink:href="#DejaVuSans-20" transform="translate(701.705078 0)"/>
      <use xlink:href="#DejaVuSans-64" transform="translate(733.492188 0)"/>
      <use xlink:href="#DejaVuSans-72" transform="translate(796.96875 0)"/>
      <use xlink:href="#DejaVuSans-61" transform="translate(838.082031 0)"/>
      <use xlink:href="#DejaVuSans-69" transform="translate(899.361328 0)"/>
      <use xlink:href="#DejaVuSans-6e" transform="translate(927.144531 0)"/>
      <use xlink:href="#DejaVuSans-20" transform="translate(990.523438 0)"/>
      <use xlink:href="#DejaVuSans-62" transform="translate(1022.310547 0)"/>
      <use xlink:href="#DejaVuSans-6f" transform="translate(1085.787109 0)"/>
      <use xlink:href="#DejaVuSans-75" transform="translate(1146.96875 0)"/>
      <use xlink:href="#DejaVuSans-6e" transform="translate(1210.347656 0)"/>
      <use xlink:href="#DejaVuSans-64" transform="translate(1273.726562 0)"/>
      <use xlink:href="#DejaVuSans-61" transform="translate(1337.203125 0)"/>
      <use xlink:href="#DejaVuSans-72" transform="translate(1398.482422 0)"/>
      <use xlink:href="#DejaVuSans-79" transform="translate(1439.595703 0)"/>
      <use xlink:href="#DejaVuSans-20" transform="translate(1498.775391 0)"/>
      <use xlink:href="#DejaVuSans-28" transform="translate(1530.5625 0)"/>
      <use xlink:href="#DejaVuSans-6d" transform="translate(1569.576172 0)"/>
      <use xlink:href="#DejaVuSans-29" transform="translate(1666.988281 0)"/>
     </g>
    </g>
   </g>
   <g id="matplotlib.axis_2">
    <g id="ytick_1">
     <g id="line2d_13">
      <path d="M 54.323678 326.423981 
L 601.79976 326.423981 
" clip-path="url(#p16579dcfa7)" style="fill: none; stroke: #b0b0b0; stroke-opacity: 0.25; stroke-width: 0.8; stroke-linecap: square"/>
     </g>
     <g id="line2d_14">
      <defs>
       <path id="m3745d94694" d="M 0 0 
L -3.5 0 
" style="stroke: #000000; stroke-width: 0.8"/>
      </defs>
      <g>
       <use xlink:href="#m3745d94694" x="54.323678" y="326.423981" style="stroke: #000000; stroke-width: 0.8"/>
      </g>
     </g>
     <g id="text_8">
      <!-- −5.00 -->
      <g transform="translate(16.678365 330.223199) scale(0.1 -0.1)">
       <defs>
        <path id="DejaVuSans-2212" d="M 678 2272 
L 4684 2272 
L 4684 1741 
L 678 1741 
L 678 2272 
z
" transform="scale(0.015625)"/>
        <path id="DejaVuSans-2e" d="M 684 794 
L 1344 794 
L 1344 0 
L 684 0 
L 684 794 
z
" transform="scale(0.015625)"/>
       </defs>
       <use xlink:href="#DejaVuSans-2212"/>
       <use xlink:href="#DejaVuSans-35" transform="translate(83.789062 0)"/>
       <use xlink:href="#DejaVuSans-2e" transform="translate(147.412109 0)"/>
       <use xlink:href="#DejaVuSans-30" transform="translate(179.199219 0)"/>
       <use xlink:href="#DejaVuSans-30" transform="translate(242.822266 0)"/>
      </g>
     </g>
    </g>
    <g id="ytick_2">
     <g id="line2d_15">
      <path d="M 54.323678 289.720581 
L 601.79976 289.720581 
" clip-path="url(#p16579dcfa7)" style="fill: none; stroke: #b0b0b0; stroke-opacity: 0.25; stroke-width: 0.8; stroke-linecap: square"/>
     </g>
     <g id="line2d_16">
      <g>
       <use xlink:href="#m3745d94694" x="54.323678" y="289.720581" style="stroke: #000000; stroke-width: 0.8"/>
      </g>
     </g>
     <g id="text_9">
      <!-- −4.75 -->
      <g transform="translate(16.678365 293.519799) scale(0.1 -0.1)">
       <defs>
        <path id="DejaVuSans-37" d="M 525 4666 
L 3525 4666 
L 3525 4397 
L 1831 0 
L 1172 0 
L 2766 4134 
L 525 4134 
L 525 4666 
z
" transform="scale(0.015625)"/>
       </defs>
       <use xlink:href="#DejaVuSans-2212"/>
       <use xlink:href="#DejaVuSans-34" transform="translate(83.789062 0)"/>
       <use xlink:href="#DejaVuSans-2e" transform="translate(147.412109 0)"/>
       <use xlink:href="#DejaVuSans-37" transform="translate(179.199219 0)"/>
       <use xlink:href="#DejaVuSans-35" transform="translate(242.822266 0)"/>
      </g>
     </g>
    </g>
    <g id="ytick_3">
     <g id="line2d_17">
      <path d="M 54.323678 253.017181 
L 601.79976 253.017181 
" clip-path="url(#p16579dcfa7)" style="fill: none; stroke: #b0b0b0; stroke-opacity: 0.25; stroke-width: 0.8; stroke-linecap: square"/>
     </g>
     <g id="line2d_18">
      <g>
       <use xlink:href="#m3745d94694" x="54.323678" y="253.017181" style="stroke: #000000; stroke-width: 0.8"/>
      </g>
     </g>
     <g id="text_10">
      <!-- −4.50 -->
      <g transform="translate(16.678365 256.816399) scale(0.1 -0.1)">
       <use xlink:href="#DejaVuSans-2212"/>
       <use xlink:href="#DejaVuSans-34" transform="translate(83.789062 0)"/>
       <use xlink:href="#DejaVuSans-2e" transform="translate(147.412109 0)"/>
       <use xlink:href="#DejaVuSans-35" transform="translate(179.199219 0)"/>
       <use xlink:href="#DejaVuSans-30" transform="translate(242.822266 0)"/>
      </g>
     </g>
    </g>
    <g id="ytick_4">
     <g id="line2d_19">
      <path d="M 54.323678 216.313781 
L 601.79976 216.313781 
" clip-path="url(#p16579dcfa7)" style="fill: none; stroke: #b0b0b0; stroke-opacity: 0.25; stroke-width: 0.8; stroke-linecap: square"/>
     </g>
     <g id="line2d_20">
      <g>
       <use xlink:href="#m3745d94694" x="54.323678" y="216.313781" style="stroke: #000000; stroke-width: 0.8"/>
      </g>
     </g>
     <g id="text_11">
      <!-- −4.25 -->
      <g transform="translate(16.678365 220.112999) scale(0.1 -0.1)">
       <use xlink:href="#DejaVuSans-2212"/>
       <use xlink:href="#DejaVuSans-34" transform="translate(83.789062 0)"/>
       <use xlink:href="#DejaVuSans-2e" transform="translate(147.412109 0)"/>
       <use xlink:href="#DejaVuSans-32" transform="translate(179.199219 0)"/>
       <use xlink:href="#DejaVuSans-35" transform="translate(242.822266 0)"/>
      </g>
     </g>
    </g>
    <g id="ytick_5">
     <g id="line2d_21">
      <path d="M 54.323678 179.610381 
L 601.79976 179.610381 
" clip-path="url(#p16579dcfa7)" style="fill: none; stroke: #b0b0b0; stroke-opacity: 0.25; stroke-width: 0.8; stroke-linecap: square"/>
     </g>
     <g id="line2d_22">
      <g>
       <use xlink:href="#m3745d94694" x="54.323678" y="179.610381" style="stroke: #000000; stroke-width: 0.8"/>
      </g>
     </g>
     <g id="text_12">
      <!-- −4.00 -->
      <g transform="translate(16.678365 183.409599) scale(0.1 -0.1)">
       <use xlink:href="#DejaVuSans-2212"/>
       <use xlink:href="#DejaVuSans-34" transform="translate(83.789062 0)"/>
       <use xlink:href="#DejaVuSans-2e" transform="translate(147.412109 0)"/>
       <use xlink:href="#DejaVuSans-30" transform="translate(179.199219 0)"/>
       <use xlink:href="#DejaVuSans-30" transform="translate(242.822266 0)"/>
      </g>
     </g>
    </g>
    <g id="ytick_6">
     <g id="line2d_23">
      <path d="M 54.323678 142.906981 
L 601.79976 142.906981 
" clip-path="url(#p16579dcfa7)" style="fill: none; stroke: #b0b0b0; stroke-opacity: 0.25; stroke-width: 0.8; stroke-linecap: square"/>
     </g>
     <g id="line2d_24">
      <g>
       <use xlink:href="#m3745d94694" x="54.323678" y="142.906981" style="stroke: #000000; stroke-width: 0.8"/>
      </g>
     </g>
     <g id="text_13">
      <!-- −3.75 -->
      <g transform="translate(16.678365 146.706199) scale(0.1 -0.1)">
       <use xlink:href="#DejaVuSans-2212"/>
       <use xlink:href="#DejaVuSans-33" transform="translate(83.789062 0)"/>
       <use xlink:href="#DejaVuSans-2e" transform="translate(147.412109 0)"/>
       <use xlink:href="#DejaVuSans-37" transform="translate(179.199219 0)"/>
       <use xlink:href="#DejaVuSans-35" transform="translate(242.822266 0)"/>
      </g>
     </g>
    </g>
    <g id="ytick_7">
     <g id="line2d_25">
      <path d="M 54.323678 106.203581 
L 601.79976 106.203581 
" clip-path="url(#p16579dcfa7)" style="fill: none; stroke: #b0b0b0; stroke-opacity: 0.25; stroke-width: 0.8; stroke-linecap: square"/>
     </g>
     <g id="line2d_26">
      <g>
       <use xlink:href="#m3745d94694" x="54.323678" y="106.203581" style="stroke: #000000; stroke-width: 0.8"/>
      </g>
     </g>
     <g id="text_14">
      <!-- −3.50 -->
      <g transform="translate(16.678365 110.002799) scale(0.1 -0.1)">
       <use xlink:href="#DejaVuSans-2212"/>
       <use xlink:href="#DejaVuSans-33" transform="translate(83.789062 0)"/>
       <use xlink:href="#DejaVuSans-2e" transform="translate(147.412109 0)"/>
       <use xlink:href="#DejaVuSans-35" transform="translate(179.199219 0)"/>
       <use xlink:href="#DejaVuSans-30" transform="translate(242.822266 0)"/>
      </g>
     </g>
    </g>
    <g id="ytick_8">
     <g id="line2d_27">
      <path d="M 54.323678 69.500181 
L 601.79976 69.500181 
" clip-path="url(#p16579dcfa7)" style="fill: none; stroke: #b0b0b0; stroke-opacity: 0.25; stroke-width: 0.8; stroke-linecap: square"/>
     </g>
     <g id="line2d_28">
      <g>
       <use xlink:href="#m3745d94694" x="54.323678" y="69.500181" style="stroke: #000000; stroke-width: 0.8"/>
      </g>
     </g>
     <g id="text_15">
      <!-- −3.25 -->
      <g transform="translate(16.678365 73.299399) scale(0.1 -0.1)">
       <use xlink:href="#DejaVuSans-2212"/>
       <use xlink:href="#DejaVuSans-33" transform="translate(83.789062 0)"/>
       <use xlink:href="#DejaVuSans-2e" transform="translate(147.412109 0)"/>
       <use xlink:href="#DejaVuSans-32" transform="translate(179.199219 0)"/>
       <use xlink:href="#DejaVuSans-35" transform="translate(242.822266 0)"/>
      </g>
     </g>
    </g>
    <g id="ytick_9">
     <g id="line2d_29">
      <path d="M 54.323678 32.796781 
L 601.79976 32.796781 
" clip-path="url(#p16579dcfa7)" style="fill: none; stroke: #b0b0b0; stroke-opacity: 0.25; stroke-width: 0.8; stroke-linecap: square"/>
     </g>
     <g id="line2d_30">
      <g>
       <use xlink:href="#m3745d94694" x="54.323678" y="32.796781" style="stroke: #000000; stroke-width: 0.8"/>
      </g>
     </g>
     <g id="text_16">
      <!-- −3.00 -->
      <g transform="translate(16.678365 36.595999) scale(0.1 -0.1)">
       <use xlink:href="#DejaVuSans-2212"/>
       <use xlink:href="#DejaVuSans-33" transform="translate(83.789062 0)"/>
       <use xlink:href="#DejaVuSans-2e" transform="translate(147.412109 0)"/>
       <use xlink:href="#DejaVuSans-30" transform="translate(179.199219 0)"/>
       <use xlink:href="#DejaVuSans-30" transform="translate(242.822266 0)"/>
      </g>
     </g>
    </g>
    <g id="text_17">
     <!-- MODFLOW head (m) -->
     <g transform="translate(10.598678 230.474688) rotate(-90) scale(0.1 -0.1)">
      <defs>
       <path id="DejaVuSans-4d" d="M 628 4666 
L 1569 4666 
L 2759 1491 
L 3956 4666 
L 4897 4666 
L 4897 0 
L 4281 0 
L 4281 4097 
L 3078 897 
L 2444 897 
L 1241 4097 
L 1241 0 
L 628 0 
L 628 4666 
z
" transform="scale(0.015625)"/>
       <path id="DejaVuSans-4f" d="M 2522 4238 
Q 1834 4238 1429 3725 
Q 1025 3213 1025 2328 
Q 1025 1447 1429 934 
Q 1834 422 2522 422 
Q 3209 422 3611 934 
Q 4013 1447 4013 2328 
Q 4013 3213 3611 3725 
Q 3209 4238 2522 4238 
z
M 2522 4750 
Q 3503 4750 4090 4092 
Q 4678 3434 4678 2328 
Q 4678 1225 4090 567 
Q 3503 -91 2522 -91 
Q 1538 -91 948 565 
Q 359 1222 359 2328 
Q 359 3434 948 4092 
Q 1538 4750 2522 4750 
z
" transform="scale(0.015625)"/>
       <path id="DejaVuSans-46" d="M 628 4666 
L 3309 4666 
L 3309 4134 
L 1259 4134 
L 1259 2759 
L 3109 2759 
L 3109 2228 
L 1259 2228 
L 1259 0 
L 628 0 
L 628 4666 
z
" transform="scale(0.015625)"/>
       <path id="DejaVuSans-4c" d="M 628 4666 
L 1259 4666 
L 1259 531 
L 3531 531 
L 3531 0 
L 628 0 
L 628 4666 
z
" transform="scale(0.015625)"/>
       <path id="DejaVuSans-57" d="M 213 4666 
L 850 4666 
L 1831 722 
L 2809 4666 
L 3519 4666 
L 4500 722 
L 5478 4666 
L 6119 4666 
L 4947 0 
L 4153 0 
L 3169 4050 
L 2175 0 
L 1381 0 
L 213 4666 
z
" transform="scale(0.015625)"/>
       <path id="DejaVuSans-68" d="M 3513 2113 
L 3513 0 
L 2938 0 
L 2938 2094 
Q 2938 2591 2744 2837 
Q 2550 3084 2163 3084 
Q 1697 3084 1428 2787 
Q 1159 2491 1159 1978 
L 1159 0 
L 581 0 
L 581 4863 
L 1159 4863 
L 1159 2956 
Q 1366 3272 1645 3428 
Q 1925 3584 2291 3584 
Q 2894 3584 3203 3211 
Q 3513 2838 3513 2113 
z
" transform="scale(0.015625)"/>
      </defs>
      <use xlink:href="#DejaVuSans-4d"/>
      <use xlink:href="#DejaVuSans-4f" transform="translate(86.279297 0)"/>
      <use xlink:href="#DejaVuSans-44" transform="translate(164.990234 0)"/>
      <use xlink:href="#DejaVuSans-46" transform="translate(241.992188 0)"/>
      <use xlink:href="#DejaVuSans-4c" transform="translate(299.511719 0)"/>
      <use xlink:href="#DejaVuSans-4f" transform="translate(351.599609 0)"/>
      <use xlink:href="#DejaVuSans-57" transform="translate(430.310547 0)"/>
      <use xlink:href="#DejaVuSans-20" transform="translate(529.1875 0)"/>
      <use xlink:href="#DejaVuSans-68" transform="translate(560.974609 0)"/>
      <use xlink:href="#DejaVuSans-65" transform="translate(624.353516 0)"/>
      <use xlink:href="#DejaVuSans-61" transform="translate(685.876953 0)"/>
      <use xlink:href="#DejaVuSans-64" transform="translate(747.15625 0)"/>
      <use xlink:href="#DejaVuSans-20" transform="translate(810.632812 0)"/>
      <use xlink:href="#DejaVuSans-28" transform="translate(842.419922 0)"/>
      <use xlink:href="#DejaVuSans-6d" transform="translate(881.433594 0)"/>
      <use xlink:href="#DejaVuSans-29" transform="translate(978.845703 0)"/>
     </g>
    </g>
   </g>
   <g id="line2d_31">
    <path d="M 79.208954 320.649001 
L 89.36621 201.905014 
L 99.523465 134.68961 
L 109.680721 95.026509 
L 119.837977 71.097261 
L 129.995233 56.477341 
L 140.152488 47.478445 
L 150.309744 41.914555 
L 160.467 38.465066 
L 170.624255 36.322862 
L 180.781511 34.991127 
L 190.938767 34.1627 
L 201.096022 33.647157 
L 211.253278 33.326247 
L 221.410534 33.12646 
L 231.56779 33.002068 
L 241.725045 32.924613 
L 251.882301 32.876383 
L 262.039557 32.84635 
L 272.196812 32.827649 
L 282.354068 32.816003 
L 292.511324 32.808751 
L 302.668579 32.804235 
L 312.825835 32.801422 
L 322.983091 32.799671 
L 333.140347 32.798581 
L 343.297602 32.797902 
L 353.454858 32.797479 
L 363.612114 32.797215 
L 373.769369 32.797051 
L 383.926625 32.796949 
L 394.083881 32.796886 
L 404.241137 32.796846 
L 414.398392 32.796821 
L 424.555648 32.796806 
L 434.712904 32.796796 
L 444.870159 32.79679 
L 455.027415 32.796787 
L 465.184671 32.796784 
L 475.341926 32.796783 
L 485.499182 32.796782 
L 495.656438 32.796782 
L 505.813694 32.796781 
L 515.970949 32.796781 
L 526.128205 32.796781 
L 536.285461 32.796781 
L 546.442716 32.796781 
L 556.599972 32.796781 
L 566.757228 32.796781 
L 576.914484 32.796781 
" clip-path="url(#p16579dcfa7)" style="fill: none; stroke: #1f77b4; stroke-width: 1.5; stroke-linecap: square"/>
   </g>
   <g id="line2d_32">
    <path d="M 79.208954 325.036568 
L 89.36621 273.362807 
L 99.523465 227.26864 
L 109.680721 187.559112 
L 119.837977 154.269866 
L 129.995233 126.970021 
L 140.152488 104.989812 
L 150.309744 87.571087 
L 160.467 73.959412 
L 170.624255 63.456114 
L 180.781511 55.444022 
L 190.938767 49.396447 
L 201.096022 44.875939 
L 211.253278 41.527195 
L 221.410534 39.067085 
L 231.56779 37.273711 
L 241.725045 35.975707 
L 251.882301 35.042461 
L 262.039557 34.375592 
L 272.196812 33.901786 
L 282.354068 33.566933 
L 292.511324 33.331447 
L 302.668579 33.166602 
L 312.825835 33.051699 
L 322.983091 32.971927 
L 333.140347 32.916752 
L 343.297602 32.878723 
L 353.454858 32.852597 
L 363.612114 32.834703 
L 373.769369 32.822484 
L 383.926625 32.814162 
L 394.083881 32.808509 
L 404.241137 32.804678 
L 414.398392 32.802088 
L 424.555648 32.800341 
L 434.712904 32.799165 
L 444.870159 32.798374 
L 455.027415 32.797844 
L 465.184671 32.797489 
L 475.341926 32.797252 
L 485.499182 32.797094 
L 495.656438 32.796989 
L 505.813694 32.796919 
L 515.970949 32.796872 
L 526.128205 32.796842 
L 536.285461 32.796821 
L 546.442716 32.796808 
L 556.599972 32.7968 
L 566.757228 32.796795 
L 576.914484 32.796793 
" clip-path="url(#p16579dcfa7)" style="fill: none; stroke: #ff7f0e; stroke-width: 1.5; stroke-linecap: square"/>
   </g>
   <g id="line2d_33">
    <path d="M 79.208954 325.943752 
L 89.36621 307.226999 
L 99.523465 289.058637 
L 109.680721 271.495886 
L 119.837977 254.585369 
L 129.995233 238.363913 
L 140.152488 222.85936 
L 150.309744 208.091367 
L 160.467 194.07218 
L 170.624255 180.807371 
L 180.781511 168.296544 
L 190.938767 156.533987 
L 201.096022 145.509304 
L 211.253278 135.207987 
L 221.410534 125.611974 
L 231.56779 116.70015 
L 241.725045 108.448835 
L 251.882301 100.83223 
L 262.039557 93.822835 
L 272.196812 87.391841 
L 282.354068 81.509495 
L 292.511324 76.145434 
L 302.668579 71.268997 
L 312.825835 66.849508 
L 322.983091 62.856533 
L 333.140347 59.260111 
L 343.297602 56.030959 
L 353.454858 53.140652 
L 363.612114 50.561776 
L 373.769369 48.268056 
L 383.926625 46.234461 
L 394.083881 44.437285 
L 404.241137 42.85421 
L 414.398392 41.464339 
L 424.555648 40.248222 
L 434.712904 39.18786 
L 444.870159 38.26669 
L 455.027415 37.469565 
L 465.184671 36.782721 
L 475.341926 36.193732 
L 485.499182 35.691466 
L 495.656438 35.266027 
L 505.813694 34.908709 
L 515.970949 34.611934 
L 526.128205 34.369206 
L 536.285461 34.175058 
L 546.442716 34.025008 
L 556.599972 33.915519 
L 566.757228 33.843969 
L 576.914484 33.808626 
" clip-path="url(#p16579dcfa7)" style="fill: none; stroke: #2ca02c; stroke-width: 1.5; stroke-linecap: square"/>
   </g>
   <g id="line2d_34">
    <path d="M 79.208954 326.197554 
L 89.36621 317.252593 
L 99.523465 308.426033 
L 109.680721 299.726275 
L 119.837977 291.161054 
L 129.995233 282.73748 
L 140.152488 274.462069 
L 150.309744 266.340774 
L 160.467 258.379019 
L 170.624255 250.581725 
L 180.781511 242.953344 
L 190.938767 235.497887 
L 201.096022 228.218946 
L 211.253278 221.119727 
L 221.410534 214.20307 
L 231.56779 207.471478 
L 241.725045 200.927134 
L 251.882301 194.57193 
L 262.039557 188.407483 
L 272.196812 182.435159 
L 282.354068 176.656091 
L 292.511324 171.071198 
L 302.668579 165.681203 
L 312.825835 160.486651 
L 322.983091 155.487924 
L 333.140347 150.685258 
L 343.297602 146.07876 
L 353.454858 141.668418 
L 363.612114 137.45412 
L 373.769369 133.435664 
L 383.926625 129.612769 
L 394.083881 125.985093 
L 404.241137 122.55224 
L 414.398392 119.313772 
L 424.555648 116.26922 
L 434.712904 113.418091 
L 444.870159 110.759883 
L 455.027415 108.294087 
L 465.184671 106.0202 
L 475.341926 103.937732 
L 485.499182 102.046208 
L 495.656438 100.345183 
L 505.813694 98.834241 
L 515.970949 97.513002 
L 526.128205 96.381129 
L 536.285461 95.438329 
L 546.442716 94.68436 
L 556.599972 94.119031 
L 566.757228 93.742205 
L 576.914484 93.553803 
" clip-path="url(#p16579dcfa7)" style="fill: none; stroke: #d62728; stroke-width: 1.5; stroke-linecap: square"/>
   </g>
   <g id="line2d_35">
    <path d="M 79.208954 326.365094 
L 89.36621 324.017407 
L 99.523465 321.679763 
L 109.680721 319.354585 
L 119.837977 317.044242 
L 129.995233 314.751052 
L 140.152488 312.477282 
L 150.309744 310.225141 
L 160.467 307.996784 
L 170.624255 305.794313 
L 180.781511 303.619772 
L 190.938767 301.475148 
L 201.096022 299.362372 
L 211.253278 297.283321 
L 221.410534 295.239812 
L 231.56779 293.233607 
L 241.725045 291.266412 
L 251.882301 289.339876 
L 262.039557 287.455594 
L 272.196812 285.615103 
L 282.354068 283.819886 
L 292.511324 282.071373 
L 302.668579 280.370937 
L 312.825835 278.7199 
L 322.983091 277.119529 
L 333.140347 275.571039 
L 343.297602 274.075593 
L 353.454858 272.634302 
L 363.612114 271.248228 
L 373.769369 269.918379 
L 383.926625 268.645715 
L 394.083881 267.431149 
L 404.241137 266.27554 
L 414.398392 265.179703 
L 424.555648 264.144404 
L 434.712904 263.170361 
L 444.870159 262.258244 
L 455.027415 261.40868 
L 465.184671 260.622248 
L 475.341926 259.89948 
L 485.499182 259.240865 
L 495.656438 258.646845 
L 505.813694 258.117821 
L 515.970949 257.654145 
L 526.128205 257.256127 
L 536.285461 256.924035 
L 546.442716 256.65809 
L 556.599972 256.458472 
L 566.757228 256.325315 
L 576.914484 256.258712 
" clip-path="url(#p16579dcfa7)" style="fill: none; stroke: #9467bd; stroke-width: 1.5; stroke-linecap: square"/>
   </g>
   <g id="patch_3">
    <path d="M 54.323678 341.04351 
L 54.323678 18.118365 
" style="fill: none; stroke: #000000; stroke-width: 0.8; stroke-linejoin: miter; stroke-linecap: square"/>
   </g>
   <g id="patch_4">
    <path d="M 601.79976 341.04351 
L 601.79976 18.118365 
" style="fill: none; stroke: #000000; stroke-width: 0.8; stroke-linejoin: miter; stroke-linecap: square"/>
   </g>
   <g id="patch_5">
    <path d="M 54.323678 341.04351 
L 601.79976 341.04351 
" style="fill: none; stroke: #000000; stroke-width: 0.8; stroke-linejoin: miter; stroke-linecap: square"/>
   </g>
   <g id="patch_6">
    <path d="M 54.323678 18.118365 
L 601.79976 18.118365 
" style="fill: none; stroke: #000000; stroke-width: 0.8; stroke-linejoin: miter; stroke-linecap: square"/>
   </g>
   <g id="text_18">
    <!-- Transient drain-down profiles (initial head = -3 m) -->
    <g transform="translate(178.481719 12.118365) scale(0.12 -0.12)">
     <defs>
      <path id="DejaVuSans-54" d="M -19 4666 
L 3928 4666 
L 3928 4134 
L 2272 4134 
L 2272 0 
L 1638 0 
L 1638 4134 
L -19 4134 
L -19 4666 
z
" transform="scale(0.015625)"/>
      <path id="DejaVuSans-2d" d="M 313 2009 
L 1997 2009 
L 1997 1497 
L 313 1497 
L 313 2009 
z
" transform="scale(0.015625)"/>
      <path id="DejaVuSans-77" d="M 269 3500 
L 844 3500 
L 1563 769 
L 2278 3500 
L 2956 3500 
L 3675 769 
L 4391 3500 
L 4966 3500 
L 4050 0 
L 3372 0 
L 2619 2869 
L 1863 0 
L 1184 0 
L 269 3500 
z
" transform="scale(0.015625)"/>
      <path id="DejaVuSans-70" d="M 1159 525 
L 1159 -1331 
L 581 -1331 
L 581 3500 
L 1159 3500 
L 1159 2969 
Q 1341 3281 1617 3432 
Q 1894 3584 2278 3584 
Q 2916 3584 3314 3078 
Q 3713 2572 3713 1747 
Q 3713 922 3314 415 
Q 2916 -91 2278 -91 
Q 1894 -91 1617 61 
Q 1341 213 1159 525 
z
M 3116 1747 
Q 3116 2381 2855 2742 
Q 2594 3103 2138 3103 
Q 1681 3103 1420 2742 
Q 1159 2381 1159 1747 
Q 1159 1113 1420 752 
Q 1681 391 2138 391 
Q 2594 391 2855 752 
Q 3116 1113 3116 1747 
z
" transform="scale(0.015625)"/>
      <path id="DejaVuSans-6c" d="M 603 4863 
L 1178 4863 
L 1178 0 
L 603 0 
L 603 4863 
z
" transform="scale(0.015625)"/>
      <path id="DejaVuSans-3d" d="M 678 2906 
L 4684 2906 
L 4684 2381 
L 678 2381 
L 678 2906 
z
M 678 1631 
L 4684 1631 
L 4684 1100 
L 678 1100 
L 678 1631 
z
" transform="scale(0.015625)"/>
     </defs>
     <use xlink:href="#DejaVuSans-54"/>
     <use xlink:href="#DejaVuSans-72" transform="translate(46.333984 0)"/>
     <use xlink:href="#DejaVuSans-61" transform="translate(87.447266 0)"/>
     <use xlink:href="#DejaVuSans-6e" transform="translate(148.726562 0)"/>
     <use xlink:href="#DejaVuSans-73" transform="translate(212.105469 0)"/>
     <use xlink:href="#DejaVuSans-69" transform="translate(264.205078 0)"/>
     <use xlink:href="#DejaVuSans-65" transform="translate(291.988281 0)"/>
     <use xlink:href="#DejaVuSans-6e" transform="translate(353.511719 0)"/>
     <use xlink:href="#DejaVuSans-74" transform="translate(416.890625 0)"/>
     <use xlink:href="#DejaVuSans-20" transform="translate(456.099609 0)"/>
     <use xlink:href="#DejaVuSans-64" transform="translate(487.886719 0)"/>
     <use xlink:href="#DejaVuSans-72" transform="translate(551.363281 0)"/>
     <use xlink:href="#DejaVuSans-61" transform="translate(592.476562 0)"/>
     <use xlink:href="#DejaVuSans-69" transform="translate(653.755859 0)"/>
     <use xlink:href="#DejaVuSans-6e" transform="translate(681.539062 0)"/>
     <use xlink:href="#DejaVuSans-2d" transform="translate(744.917969 0)"/>
     <use xlink:href="#DejaVuSans-64" transform="translate(781.001953 0)"/>
     <use xlink:href="#DejaVuSans-6f" transform="translate(844.478516 0)"/>
     <use xlink:href="#DejaVuSans-77" transform="translate(905.660156 0)"/>
     <use xlink:href="#DejaVuSans-6e" transform="translate(987.447266 0)"/>
     <use xlink:href="#DejaVuSans-20" transform="translate(1050.826172 0)"/>
     <use xlink:href="#DejaVuSans-70" transform="translate(1082.613281 0)"/>
     <use xlink:href="#DejaVuSans-72" transform="translate(1146.089844 0)"/>
     <use xlink:href="#DejaVuSans-6f" transform="translate(1184.953125 0)"/>
     <use xlink:href="#DejaVuSans-66" transform="translate(1246.134766 0)"/>
     <use xlink:href="#DejaVuSans-69" transform="translate(1281.339844 0)"/>
     <use xlink:href="#DejaVuSans-6c" transform="translate(1309.123047 0)"/>
     <use xlink:href="#DejaVuSans-65" transform="translate(1336.90625 0)"/>
     <use xlink:href="#DejaVuSans-73" transform="translate(1398.429688 0)"/>
     <use xlink:href="#DejaVuSans-20" transform="translate(1450.529297 0)"/>
     <use xlink:href="#DejaVuSans-28" transform="translate(1482.316406 0)"/>
     <use xlink:href="#DejaVuSans-69" transform="translate(1521.330078 0)"/>
     <use xlink:href="#DejaVuSans-6e" transform="translate(1549.113281 0)"/>
     <use xlink:href="#DejaVuSans-69" transform="translate(1612.492188 0)"/>
     <use xlink:href="#DejaVuSans-74" transform="translate(1640.275391 0)"/>
     <use xlink:href="#DejaVuSans-69" transform="translate(1679.484375 0)"/>
     <use xlink:href="#DejaVuSans-61" transform="translate(1707.267578 0)"/>
     <use xlink:href="#DejaVuSans-6c" transform="translate(1768.546875 0)"/>
     <use xlink:href="#DejaVuSans-20" transform="translate(1796.330078 0)"/>
     <use xlink:href="#DejaVuSans-68" transform="translate(1828.117188 0)"/>
     <use xlink:href="#DejaVuSans-65" transform="translate(1891.496094 0)"/>
     <use xlink:href="#DejaVuSans-61" transform="translate(1953.019531 0)"/>
     <use xlink:href="#DejaVuSans-64" transform="translate(2014.298828 0)"/>
     <use xlink:href="#DejaVuSans-20" transform="translate(2077.775391 0)"/>
     <use xlink:href="#DejaVuSans-3d" transform="translate(2109.5625 0)"/>
     <use xlink:href="#DejaVuSans-20" transform="translate(2193.351562 0)"/>
     <use xlink:href="#DejaVuSans-2d" transform="translate(2225.138672 0)"/>
     <use xlink:href="#DejaVuSans-33" transform="translate(2261.222656 0)"/>
     <use xlink:href="#DejaVuSans-20" transform="translate(2324.845703 0)"/>
     <use xlink:href="#DejaVuSans-6d" transform="translate(2356.632812 0)"/>
     <use xlink:href="#DejaVuSans-29" transform="translate(2454.044922 0)"/>
    </g>
   </g>
   <g id="legend_1">
    <g id="patch_7">
     <path d="M 430.29976 336.04351 
L 594.79976 336.04351 
Q 596.79976 336.04351 596.79976 334.04351 
L 596.79976 291.009135 
Q 596.79976 289.009135 594.79976 289.009135 
L 430.29976 289.009135 
Q 428.29976 289.009135 428.29976 291.009135 
L 428.29976 334.04351 
Q 428.29976 336.04351 430.29976 336.04351 
z
" style="fill: #ffffff; opacity: 0.8; stroke: #cccccc; stroke-linejoin: miter"/>
    </g>
    <g id="line2d_36">
     <path d="M 432.29976 297.107573 
L 442.29976 297.107573 
L 452.29976 297.107573 
" style="fill: none; stroke: #1f77b4; stroke-width: 1.5; stroke-linecap: square"/>
    </g>
    <g id="text_19">
     <!-- day 0.25 -->
     <g transform="translate(460.29976 300.607573) scale(0.1 -0.1)">
      <use xlink:href="#DejaVuSans-64"/>
      <use xlink:href="#DejaVuSans-61" transform="translate(63.476562 0)"/>
      <use xlink:href="#DejaVuSans-79" transform="translate(124.755859 0)"/>
      <use xlink:href="#DejaVuSans-20" transform="translate(183.935547 0)"/>
      <use xlink:href="#DejaVuSans-30" transform="translate(215.722656 0)"/>
      <use xlink:href="#DejaVuSans-2e" transform="translate(279.345703 0)"/>
      <use xlink:href="#DejaVuSans-32" transform="translate(311.132812 0)"/>
      <use xlink:href="#DejaVuSans-35" transform="translate(374.755859 0)"/>
     </g>
    </g>
    <g id="line2d_37">
     <path d="M 432.29976 311.785698 
L 442.29976 311.785698 
L 452.29976 311.785698 
" style="fill: none; stroke: #ff7f0e; stroke-width: 1.5; stroke-linecap: square"/>
    </g>
    <g id="text_20">
     <!-- day 1 -->
     <g transform="translate(460.29976 315.285698) scale(0.1 -0.1)">
      <use xlink:href="#DejaVuSans-64"/>
      <use xlink:href="#DejaVuSans-61" transform="translate(63.476562 0)"/>
      <use xlink:href="#DejaVuSans-79" transform="translate(124.755859 0)"/>
      <use xlink:href="#DejaVuSans-20" transform="translate(183.935547 0)"/>
      <use xlink:href="#DejaVuSans-31" transform="translate(215.722656 0)"/>
     </g>
    </g>
    <g id="line2d_38">
     <path d="M 432.29976 326.463823 
L 442.29976 326.463823 
L 452.29976 326.463823 
" style="fill: none; stroke: #2ca02c; stroke-width: 1.5; stroke-linecap: square"/>
    </g>
    <g id="text_21">
     <!-- day 7 -->
     <g transform="translate(460.29976 329.963823) scale(0.1 -0.1)">
      <use xlink:href="#DejaVuSans-64"/>
      <use xlink:href="#DejaVuSans-61" transform="translate(63.476562 0)"/>
      <use xlink:href="#DejaVuSans-79" transform="translate(124.755859 0)"/>
      <use xlink:href="#DejaVuSans-20" transform="translate(183.935547 0)"/>
      <use xlink:href="#DejaVuSans-37" transform="translate(215.722656 0)"/>
     </g>
    </g>
    <g id="line2d_39">
     <path d="M 524.138823 297.107573 
L 534.138823 297.107573 
L 544.138823 297.107573 
" style="fill: none; stroke: #d62728; stroke-width: 1.5; stroke-linecap: square"/>
    </g>
    <g id="text_22">
     <!-- day 30 -->
     <g transform="translate(552.138823 300.607573) scale(0.1 -0.1)">
      <use xlink:href="#DejaVuSans-64"/>
      <use xlink:href="#DejaVuSans-61" transform="translate(63.476562 0)"/>
      <use xlink:href="#DejaVuSans-79" transform="translate(124.755859 0)"/>
      <use xlink:href="#DejaVuSans-20" transform="translate(183.935547 0)"/>
      <use xlink:href="#DejaVuSans-33" transform="translate(215.722656 0)"/>
      <use xlink:href="#DejaVuSans-30" transform="translate(279.345703 0)"/>
     </g>
    </g>
    <g id="line2d_40">
     <path d="M 524.138823 311.785698 
L 534.138823 311.785698 
L 544.138823 311.785698 
" style="fill: none; stroke: #9467bd; stroke-width: 1.5; stroke-linecap: square"/>
    </g>
    <g id="text_23">
     <!-- day 120 -->
     <g transform="translate(552.138823 315.285698) scale(0.1 -0.1)">
      <use xlink:href="#DejaVuSans-64"/>
      <use xlink:href="#DejaVuSans-61" transform="translate(63.476562 0)"/>
      <use xlink:href="#DejaVuSans-79" transform="translate(124.755859 0)"/>
      <use xlink:href="#DejaVuSans-20" transform="translate(183.935547 0)"/>
      <use xlink:href="#DejaVuSans-31" transform="translate(215.722656 0)"/>
      <use xlink:href="#DejaVuSans-32" transform="translate(279.345703 0)"/>
      <use xlink:href="#DejaVuSans-30" transform="translate(342.96875 0)"/>
     </g>
    </g>
   </g>
  </g>
 </g>
 <defs>
  <clipPath id="p16579dcfa7">
   <rect x="54.323678" y="18.118365" width="547.476082" height="322.925145"/>
  </clipPath>
 </defs>
</svg>
