<svg xmlns="http://www.w3.org/2000/svg" width="1400" height="820" viewBox="0 0 1400 820">
<defs><marker id="arrow" markerWidth="10" markerHeight="10" refX="9" refY="3" orient="auto" markerUnits="strokeWidth"><path d="M0,0 L0,6 L9,3 z" fill="#222"/></marker></defs>
<style>
text{font-family:Arial,Helvetica,sans-serif;fill:#111} .title{font-size:28px;font-weight:700}.panel{font-size:21px;font-weight:700}.label{font-size:18px}.small{font-size:15px}.tiny{font-size:13px}.box{fill:#fff;stroke:#222;stroke-width:2}.soft{fill:#f2f2f2;stroke:#333;stroke-width:1.5}.dark{fill:#d9d9d9;stroke:#222;stroke-width:1.5}.line{stroke:#222;stroke-width:2;fill:none}.dash{stroke:#555;stroke-width:2;stroke-dasharray:7 5;fill:none}.grid{stroke:#ddd;stroke-width:1}.axis{stroke:#222;stroke-width:1.5}.note{font-size:14px;fill:#333}
</style><text x="40" y="42" class="title">F6. Stronger local response does not guarantee a valid stronger coupled problem</text><rect x="70" y="120" width="1260" height="145" rx="10" class="soft"/><text x="95" y="155" class="panel" text-anchor="start">A  Active-drainage route</text><text x="700" y="155" class="small" text-anchor="middle"><tspan x="700" dy="0">predictor q_bot = 0.002 cm/day; u_A = 5.760e-4; mass residual = 1.74e-16</tspan><tspan x="700" dy="28">prescribed-head reference corrector: KERNEL_STATUS_NOT_ADMITTED before any transaction attempt</tspan><tspan x="700" dy="28">preregistered live-MODFLOW matrix therefore skipped</tspan></text><text x="70" y="310" class="panel" text-anchor="start">B  Accepted-state / predictor-flux screen</text><text x="315" y="339" class="small" text-anchor="middle">1e-6 cm/d</text><text x="505" y="339" class="small" text-anchor="middle">1e-4 cm/d</text><text x="695" y="339" class="small" text-anchor="middle">1.0e-2 cm/d</text><text x="885" y="339" class="small" text-anchor="middle">1.0e-1 cm/d</text><text x="1075" y="339" class="small" text-anchor="middle">1.0e+0 cm/d</text><text x="195" y="401" class="small" text-anchor="end">H0 -150 cm</text><text x="195" y="483" class="small" text-anchor="end">H0 -75 cm</text><text x="195" y="565" class="small" text-anchor="end">H0 -25 cm</text><text x="195" y="647" class="small" text-anchor="end">H0 -10 cm</text><rect x="220" y="355" width="190" height="82" fill="#f5f5f5" stroke="#222"/><text x="315" y="387" class="tiny" text-anchor="middle"><tspan x="315" dy="0">sym ±1e-5 m</tspan><tspan x="315" dy="20">u_A 6.42e-5</tspan></text><rect x="410" y="355" width="190" height="82" fill="#e4e4e4" stroke="#222"/><text x="505" y="387" class="tiny" text-anchor="middle"><tspan x="505" dy="0">no symmetric pair</tspan><tspan x="505" dy="20">u_A 6.41e-5</tspan></text><rect x="600" y="355" width="190" height="82" fill="#d0d0d0" stroke="#222"/><text x="695" y="387" class="tiny" text-anchor="middle"><tspan x="695" dy="0">PRED FAIL</tspan><tspan x="695" dy="20">8 retries exhausted</tspan></text><rect x="790" y="355" width="190" height="82" fill="#d0d0d0" stroke="#222"/><text x="885" y="387" class="tiny" text-anchor="middle"><tspan x="885" dy="0">PRED FAIL</tspan><tspan x="885" dy="20">8 retries exhausted</tspan></text><rect x="980" y="355" width="190" height="82" fill="#d0d0d0" stroke="#222"/><text x="1075" y="387" class="tiny" text-anchor="middle"><tspan x="1075" dy="0">PRED FAIL</tspan><tspan x="1075" dy="20">8 retries exhausted</tspan></text><rect x="220" y="437" width="190" height="82" fill="#f5f5f5" stroke="#222"/><text x="315" y="469" class="tiny" text-anchor="middle"><tspan x="315" dy="0">sym ±1e-6 m</tspan><tspan x="315" dy="20">u_A 2.69e-4</tspan></text><rect x="410" y="437" width="190" height="82" fill="#e4e4e4" stroke="#222"/><text x="505" y="469" class="tiny" text-anchor="middle"><tspan x="505" dy="0">no symmetric pair</tspan><tspan x="505" dy="20">u_A 2.67e-4</tspan></text><rect x="600" y="437" width="190" height="82" fill="#d0d0d0" stroke="#222"/><text x="695" y="469" class="tiny" text-anchor="middle"><tspan x="695" dy="0">PRED FAIL</tspan><tspan x="695" dy="20">8 retries exhausted</tspan></text><rect x="790" y="437" width="190" height="82" fill="#d0d0d0" stroke="#222"/><text x="885" y="469" class="tiny" text-anchor="middle"><tspan x="885" dy="0">PRED FAIL</tspan><tspan x="885" dy="20">8 retries exhausted</tspan></text><rect x="980" y="437" width="190" height="82" fill="#d0d0d0" stroke="#222"/><text x="1075" y="469" class="tiny" text-anchor="middle"><tspan x="1075" dy="0">PRED FAIL</tspan><tspan x="1075" dy="20">8 retries exhausted</tspan></text><rect x="220" y="519" width="190" height="82" fill="#f5f5f5" stroke="#222"/><text x="315" y="551" class="tiny" text-anchor="middle"><tspan x="315" dy="0">sym ±1e-6 m</tspan><tspan x="315" dy="20">u_A 9.02e-4</tspan></text><rect x="410" y="519" width="190" height="82" fill="#e4e4e4" stroke="#222"/><text x="505" y="551" class="tiny" text-anchor="middle"><tspan x="505" dy="0">no symmetric pair</tspan><tspan x="505" dy="20">u_A 8.67e-4</tspan></text><rect x="600" y="519" width="190" height="82" fill="#d0d0d0" stroke="#222"/><text x="695" y="551" class="tiny" text-anchor="middle"><tspan x="695" dy="0">PRED FAIL</tspan><tspan x="695" dy="20">8 retries exhausted</tspan></text><rect x="790" y="519" width="190" height="82" fill="#d0d0d0" stroke="#222"/><text x="885" y="551" class="tiny" text-anchor="middle"><tspan x="885" dy="0">PRED FAIL</tspan><tspan x="885" dy="20">8 retries exhausted</tspan></text><rect x="980" y="519" width="190" height="82" fill="#d0d0d0" stroke="#222"/><text x="1075" y="551" class="tiny" text-anchor="middle"><tspan x="1075" dy="0">PRED FAIL</tspan><tspan x="1075" dy="20">8 retries exhausted</tspan></text><rect x="220" y="601" width="190" height="82" fill="#e4e4e4" stroke="#222"/><text x="315" y="633" class="tiny" text-anchor="middle"><tspan x="315" dy="0">no symmetric pair</tspan><tspan x="315" dy="20">u_A 1.16e-3</tspan></text><rect x="410" y="601" width="190" height="82" fill="#f5f5f5" stroke="#222"/><text x="505" y="633" class="tiny" text-anchor="middle"><tspan x="505" dy="0">sym ±1e-6 m</tspan><tspan x="505" dy="20">u_A 1.10e-3</tspan></text><rect x="600" y="601" width="190" height="82" fill="#d0d0d0" stroke="#222"/><text x="695" y="633" class="tiny" text-anchor="middle"><tspan x="695" dy="0">PRED FAIL</tspan><tspan x="695" dy="20">8 retries exhausted</tspan></text><rect x="790" y="601" width="190" height="82" fill="#d0d0d0" stroke="#222"/><text x="885" y="633" class="tiny" text-anchor="middle"><tspan x="885" dy="0">PRED FAIL</tspan><tspan x="885" dy="20">8 retries exhausted</tspan></text><rect x="980" y="601" width="190" height="82" fill="#d0d0d0" stroke="#222"/><text x="1075" y="633" class="tiny" text-anchor="middle"><tspan x="1075" dy="0">PRED FAIL</tspan><tspan x="1075" dy="20">8 retries exhausted</tspan></text><text x="700" y="725" class="small" text-anchor="middle"><tspan x="700" dy="0">8 / 20 predictors ready; 12 / 20 higher-flux predictors failed.</tspan><tspan x="700" dy="23">Largest symmetric corrector neighbourhood: ±10⁻⁵ m in one low-flux state; 0 cases reached the preregistered ±10⁻⁴ m E6-B gate.</tspan><tspan x="700" dy="23">No production tolerance, retry budget or physics was changed.</tspan></text></svg>