<svg xmlns="http://www.w3.org/2000/svg" width="1400" height="820" viewBox="0 0 1400 820">
<defs><marker id="arrow" markerWidth="10" markerHeight="10" refX="9" refY="3" orient="auto" markerUnits="strokeWidth"><path d="M0,0 L0,6 L9,3 z" fill="#222"/></marker></defs>
<style>
text{font-family:Arial,Helvetica,sans-serif;fill:#111} .title{font-size:28px;font-weight:700}.panel{font-size:21px;font-weight:700}.label{font-size:18px}.small{font-size:15px}.tiny{font-size:13px}.box{fill:#fff;stroke:#222;stroke-width:2}.soft{fill:#f2f2f2;stroke:#333;stroke-width:1.5}.dark{fill:#d9d9d9;stroke:#222;stroke-width:1.5}.line{stroke:#222;stroke-width:2;fill:none}.dash{stroke:#555;stroke-width:2;stroke-dasharray:7 5;fill:none}.grid{stroke:#ddd;stroke-width:1}.axis{stroke:#222;stroke-width:1.5}.note{font-size:14px;fill:#333}
</style><text x="40" y="42" class="title">F4. Response identity depends on the finite-window boundary-value map</text><line x1="100" y1="650" x2="1280" y2="650" class="grid"/><text x="88" y="654" class="tiny" text-anchor="end">0.950</text><line x1="100" y1="566.6666666666666" x2="1280" y2="566.6666666666666" class="grid"/><text x="88" y="570.6666666666666" class="tiny" text-anchor="end">0.975</text><line x1="100" y1="483.33333333333337" x2="1280" y2="483.33333333333337" class="grid"/><text x="88" y="487.33333333333337" class="tiny" text-anchor="end">1.000</text><line x1="100" y1="400.00000000000034" x2="1280" y2="400.00000000000034" class="grid"/><text x="88" y="404.00000000000034" class="tiny" text-anchor="end">1.025</text><line x1="100" y1="316.6666666666674" x2="1280" y2="316.6666666666674" class="grid"/><text x="88" y="320.6666666666674" class="tiny" text-anchor="end">1.050</text><line x1="100" y1="233.33333333333445" x2="1280" y2="233.33333333333445" class="grid"/><text x="88" y="237.33333333333445" class="tiny" text-anchor="end">1.075</text><line x1="100" y1="150.00000000000148" x2="1280" y2="150.00000000000148" class="grid"/><text x="88" y="154.00000000000148" class="tiny" text-anchor="end">1.100</text><rect x="100" y="150" width="1180" height="500" fill="none" class="axis"/><line x1="100" y1="483.33333333333337" x2="1280" y2="483.33333333333337" class="dash"/><rect x="142" y="483.32423937245267" width="42" height="166.67576062754733" fill="#222" stroke="#111"/><text x="163" y="475.32423937245267" class="tiny" text-anchor="middle">1.000</text><rect x="197" y="483.4337043089316" width="42" height="166.56629569106838" fill="#777" stroke="#111"/><text x="218" y="475.4337043089316" class="tiny" text-anchor="middle">1.000</text><rect x="252" y="483.4337043089316" width="42" height="166.56629569106838" fill="#bbb" stroke="#111"/><text x="273" y="475.4337043089316" class="tiny" text-anchor="middle">1.000</text><text x="218" y="690" class="label" text-anchor="middle">B1</text><text x="218" y="714" class="tiny" text-anchor="middle">u_A=3.40e-5</text><rect x="378" y="483.37826737934586" width="42" height="166.62173262065414" fill="#222" stroke="#111"/><text x="399" y="475.37826737934586" class="tiny" text-anchor="middle">1.000</text><rect x="433" y="483.34653072553317" width="42" height="166.65346927446683" fill="#777" stroke="#111"/><text x="454" y="475.34653072553317" class="tiny" text-anchor="middle">1.000</text><rect x="488" y="483.3465307255358" width="42" height="166.65346927446421" fill="#bbb" stroke="#111"/><text x="509" y="475.3465307255358" class="tiny" text-anchor="middle">1.000</text><text x="454" y="690" class="label" text-anchor="middle">B2</text><text x="454" y="714" class="tiny" text-anchor="middle">u_A=2.69e-4</text><rect x="614" y="483.3333063000851" width="42" height="166.6666936999149" fill="#222" stroke="#111"/><text x="635" y="475.3333063000851" class="tiny" text-anchor="middle">1.000</text><rect x="669" y="212.69840159515883" width="42" height="437.3015984048412" fill="#777" stroke="#111"/><text x="690" y="204.69840159515883" class="tiny" text-anchor="middle">1.081</text><rect x="724" y="212.69840159505372" width="42" height="437.3015984049463" fill="#bbb" stroke="#111"/><text x="745" y="204.69840159505372" class="tiny" text-anchor="middle">1.081</text><text x="690" y="690" class="label" text-anchor="middle">B3</text><text x="690" y="714" class="tiny" text-anchor="middle">u_A=2.67e-4</text><rect x="850" y="483.3209488940504" width="42" height="166.6790511059496" fill="#222" stroke="#111"/><text x="871" y="475.3209488940504" class="tiny" text-anchor="middle">1.000</text><rect x="905" y="483.3326620817694" width="42" height="166.6673379182306" fill="#777" stroke="#111"/><text x="926" y="475.3326620817694" class="tiny" text-anchor="middle">1.000</text><rect x="960" y="483.3326620817819" width="42" height="166.6673379182181" fill="#bbb" stroke="#111"/><text x="981" y="475.3326620817819" class="tiny" text-anchor="middle">1.000</text><text x="926" y="690" class="label" text-anchor="middle">B4</text><text x="926" y="714" class="tiny" text-anchor="middle">u_A=1.19e-3</text><rect x="1086" y="483.33361488909645" width="42" height="166.66638511090355" fill="#222" stroke="#111"/><text x="1107" y="475.33361488909645" class="tiny" text-anchor="middle">1.000</text><text x="1162" y="466.666666666667" class="tiny" text-anchor="middle">NA</text><text x="1217" y="466.666666666667" class="tiny" text-anchor="middle">NA</text><text x="1162" y="690" class="label" text-anchor="middle">B5</text><text x="1162" y="714" class="tiny" text-anchor="middle">u_A=1.12e-3</text><text x="700" y="755" class="label" text-anchor="middle">ratio to u_A (unity = identical local magnitude)</text><rect x="1020" y="92" width="320" height="48" rx="10" class="box"/><rect x="1040" y="108" width="18" height="18" fill="#222"/><text x="1068" y="123" class="tiny" text-anchor="start">u_FD / u_A</text><rect x="1150" y="108" width="18" height="18" fill="#777"/><text x="1178" y="123" class="tiny" text-anchor="start">J_S / u_A</text><rect x="1260" y="108" width="18" height="18" fill="#bbb"/><text x="1288" y="123" class="tiny" text-anchor="start">|J_R| / u_A</text><text x="105" y="112" class="small" text-anchor="start">B3 separates maps: |J_R|/u_A = 1.081. B5 retains u_A≈u_FD but has no symmetric head-driven derivative.</text></svg>